<svg xmlns="http://www.w3.org/2000/svg" width="1em" height="1em" viewBox="0 0 512 512">
	<path fill="currentColor" d="M349.368 147.48h-2.022v-46.315c0-6.641-4.15-12.574-10.388-14.854L103.352.961C98.202-.922 92.446 0 88.14 3.39c-4.306 3.392-6.549 8.771-5.927 14.218L98.66 161.609 43.115 328.044c-10.415 31.207-9.564 65.233 2.393 95.811 12.059 30.835 34.684 56.221 63.709 71.479C129.955 506.236 153.375 512 176.947 512h105.955c1.253 0 2.503-.016 3.754-.047 45.634-1.156 86.304-23.838 111.582-62.23 25.322-38.459 30.241-86.889 13.155-129.55l-56.425-140.894c49.856 2.909 89.526 44.384 89.526 94.957 0 8.734 7.081 15.814 15.814 15.814s15.814-7.08 15.814-15.814c0-69.894-56.862-126.756-126.754-126.756ZM315.718 112.223v35.257h-186.84L116.54 39.453l199.178 72.77Zm56.103 320.107c-19.501 29.617-50.835 47.115-85.961 48.005-.984.024-1.969.037-2.959.037H176.946c-18.728 0-36.563-4.385-53.011-13.032-46.321-24.351-67.692-78.723-50.819-129.284l.119-.355c21.518 14.604 46.959 22.495 73.327 22.495 18.528 0 36.441-3.804 53.24-11.307 18.36-8.199 39.421-8.2 57.783 0 16.8 7.502 34.713 11.307 53.242 11.307 26.463 0 51.836-7.87 73.327-22.476 10.612 31.592 6.16 66.527-12.333 94.614Zm.347-125.026c-17.424 13.772-38.862 21.263-61.341 21.263-14.055 0-27.629-2.879-40.346-8.557-26.555-11.859-57.018-11.86-83.575 0-12.717 5.678-26.29 8.557-40.345 8.557-23.022 0-45.107-7.942-62.789-22.445l42.389-127.014h194.667l51.34 128.196Z" />
</svg>
