<svg xmlns="http://www.w3.org/2000/svg" width="1em" height="1em" viewBox="0 0 512 512" aria-hidden="true">
	<!-- License: CC0. Source: SVG Repo, grinder icon. -->
	<g transform="translate(1 1)">
		<path fill="currentColor" d="M441.093 389.827 417.562 281.583l15.851-31.703c1.707-2.56 1.707-5.973 0-8.533s-5.12-4.267-7.68-4.267h-51.2v-20.23c32.079-22.482 51.2-59.691 51.2-100.09V101.4c0-5.12-3.413-8.533-8.533-8.533h-93.867V58.733h8.533c3.413 0 6.827-1.707 7.68-5.973l17.067-42.667c.853-2.56.853-5.12-.853-7.68C354.053.707 351.493-1 348.933-1h-68.267c-2.56 0-5.12 1.707-6.827 4.267-1.707 1.707-1.707 5.12-.853 7.68l17.067 42.667c.853 3.413 4.267 5.12 7.68 5.12h8.533v8.533h-82.773l-23.04-15.36c-1.707-.853-3.413-1.707-5.12-1.707h-54.187l10.667-21.333c1.707-2.56 1.707-5.973 0-8.533s-5.12-4.267-7.68-4.267H75.866c-2.56 0-5.973 1.707-7.68 3.413-.853 2.56-1.707 5.973 0 8.533l17.067 34.133c1.707 3.413 4.267 5.12 7.68 5.12h99.84l23.04 15.36c1.707.853 3.413 1.707 5.12 1.707h85.333v8.533h-93.867c-5.12 0-8.533 3.413-8.533 8.533v15.36c0 39.575 19.121 76.756 51.2 100.007v20.313h-51.2c-3.413 0-5.973 1.707-7.68 4.267-.853 2.56-1.707 5.973 0 8.533l15.851 31.703-23.531 108.244c-.853 5.973-1.707 12.8-1.707 18.773 0 52.907 40.107 96.427 93.013 101.547l9.387.853h52.053l8.533-.853c52.907-5.12 93.013-48.64 93.013-101.547 0-5.973-.853-11.947-1.706-18.773ZM293.466 16.067h42.667l-10.24 25.6h-22.187l-10.24-25.6ZM109.999 50.2H98.053L89.52 33.133h40.96L121.946 50.2h-11.947Zm110.934 66.56v-6.827h187.733v6.827c0 34.987-17.067 67.413-45.227 87.04h-97.28c-28.16-19.627-45.226-52.053-45.226-87.04Zm51.2 104.107h85.333v16.213h-85.333v-16.213ZM263.599 255h148.48l-8.533 17.067H226.053L217.519 255h46.08Zm85.334 238.08-8.533.853h-50.347l-9.387-.853c-43.52-4.267-76.8-40.107-76.8-84.48 0-5.12.853-10.24 1.707-15.36l22.187-104.107h174.08l22.187 104.107c.853 5.12 1.707 10.24 1.707 15.36-.001 44.373-33.281 80.213-76.801 84.48Z" />
		<path fill="currentColor" d="m291.759 459.8-7.68-.853c-26.453-2.56-46.08-23.893-46.08-50.347 0-2.56 0-5.973.853-9.387.853-5.12-2.56-9.387-6.827-10.24-5.12-.853-9.387 2.56-10.24 6.827-.853 4.267-.853 8.533-.853 12.8 0 34.987 26.453 64 61.44 67.413l8.533.853c4.267 0 7.68-3.413 8.533-7.68.855-5.119-3.412-9.386-7.679-9.386Z" />
	</g>
</svg>
